<svg width="20" height="17" viewBox="0 0 20 17" fill="none" xmlns="http://www.w3.org/2000/svg">
<rect width="20" height="17" fill="#F5F5F5"/>
<path d="M17.9226 2.90485L17.3523 2.60777L16.7821 2.3767L16.1711 2.17864L15.5601 1.98058L15.0306 1.84854L14.501 1.7165L14.1752 1.65049L13.8493 1.58447L13.6049 1.55146L13.279 1.51845L12.9939 1.48544L12.6273 1.45243L11.9348 1.41942H11.2831H10.5906L9.5723 1.51845L9.0835 1.58447L8.59471 1.6835L8.10591 1.78252L7.61711 1.91456L6.68025 2.21165L6.02851 2.40971L5.33605 2.73981L4.35845 3.26796L2.93279 4.25825L2.15886 4.95146L1.42566 5.67767L0.651731 6.70097L0 7.85631L0.855398 6.63495L1.87373 5.4466L2.76986 4.65437L3.78819 4.02718L5.25458 3.4L6.59878 3.13592L7.98371 2.97087L9.12424 3.00388L10.0611 3.0699L10.9165 3.16893L12.0163 3.36699L12.6273 3.49903L13.1568 3.63107L13.4012 3.69709L13.6864 3.76311L13.9511 3.82913L14.2159 3.89515L14.4603 3.96116L14.664 4.02718L14.8676 4.12621L15.112 4.25825L14.5418 4.06019L14.2159 3.99417L13.89 3.92816L13.4012 3.82913L12.7088 3.7301L12.057 3.63107L11.3646 3.56505L10.1018 3.53204H9.2057L8.35031 3.56505L7.45418 3.69709L6.59878 3.89515L5.29532 4.25825L4.07332 4.81942L4.88798 4.55534L5.25458 4.45631L5.45825 4.4068L5.66191 4.35728L5.90631 4.39029L6.02851 7.65825L6.27291 8.74757L6.63951 9.80388L7.12831 10.8272L7.82077 11.9495L8.7169 12.9728L10.0611 14.2272L10.8758 14.8214L11.6497 15.2835L12.057 15.5146L12.2607 15.6136L12.5051 15.7126L12.8717 15.8777L13.8493 16.2738L14.1344 16.3728L15.4379 16.7359L16.2933 16.901L17.0672 17L16.4562 16.901L16.2525 16.868L15.8045 16.7689L14.7454 16.4718L14.0122 16.2078L13.279 15.9107L12.5866 15.5476L12.3829 15.4155L12.1385 15.2505L11.6497 14.9204L11.2016 14.5243L10.4684 13.699L9.73523 12.5767L9.2057 11.4874L8.8391 10.4311L8.47251 8.1534V6.4699V6.07379V5.64466L8.55397 5.4466L8.63544 6.96505L8.67617 7.29515L8.7169 7.69126L8.8391 8.25243L9.00204 8.81359L9.16497 9.40777L9.36864 10.101L9.5723 10.5301L9.73523 10.8932L10.0611 11.4874L10.5499 12.2796L10.7943 12.6427L11.0794 12.9728L11.609 13.6L12.0163 13.9631L12.8717 14.7223L13.8086 15.3825L14.3788 15.1515L14.8269 14.8544L15.5601 14.3262L16.1303 13.8971L17.7597 12.2136L18.6151 10.9262L19.2668 9.77087L19.7556 8.12039L19.9185 7.1301L20 6.40388V6.1068V5.7767V5.31456L19.9593 4.98447L19.9185 4.62136L19.8778 4.35728L19.7963 3.92816L19.7149 3.4L19.5519 2.90485L19.1446 1.98058L19.0224 1.78252L18.9817 1.7165L18.9002 1.58447L18.8595 1.51845L18.778 1.38641L18.7373 1.32039L18.6965 1.25437L18.5743 1.0233L18.5336 0.957282L18.2485 0.528155L18.0041 0.132039L17.9226 0L18.1263 0.363107L18.6151 1.22136L18.6965 1.32039L18.778 1.48544L18.8187 1.58447L18.8595 1.6835L18.9409 1.84854L19.1446 2.31068L19.4705 3.66408V4.12621L19.5112 4.45631V5.0835L19.4705 5.4466L19.4297 5.7767L19.389 6.00777L19.1853 6.50291L19.002 6.96505L18.8187 7.42718L18.0448 8.71456L17.0265 9.93592L15.8452 11.0583L14.0122 12.5767L13.5234 12.8738L14.2159 12.2136L15.1935 11.3223L16.0489 10.365L16.5377 9.73786L16.9857 9.04466L17.3931 8.35146L17.7189 7.65825L17.9226 7.26214L18.3299 5.90874L18.4521 5.24854L18.4929 4.7534L18.5336 4.12621L18.2892 5.41359L17.5967 6.66796L16.7821 7.79029L15.8045 8.78058L15.4379 9.14369L15.0306 9.5068L13.1976 10.9262L11.2016 12.2136L10.8758 11.3883L10.6721 10.5301L10.5092 9.40777L10.4277 8.05437V7.26214V6.43689L10.4684 5.90874L10.5092 5.47961L10.5499 5.24854L10.5906 4.98447V4.85243V4.72039H10.6721H10.7943L10.998 4.7534L11.3238 4.81942L11.7312 4.95146L12.057 5.05049L13.4012 5.4466L14.1752 5.71068L15.2342 6.07379L16.2118 6.50291L17.9226 2.90485Z" fill="#1C86DA"/>
</svg>
