<svg width="87" height="17" viewBox="0 0 87 17" fill="none" xmlns="http://www.w3.org/2000/svg">
<rect width="87" height="17" fill="#F5F5F5"/>
<path d="M17.9226 2.90485L17.3523 2.60777L16.7821 2.3767L16.1711 2.17864L15.5601 1.98058L15.0306 1.84854L14.501 1.7165L14.1752 1.65049L13.8493 1.58447L13.6049 1.55146L13.279 1.51845L12.9939 1.48544L12.6273 1.45243L11.9348 1.41942H11.2831H10.5906L9.5723 1.51845L9.0835 1.58447L8.59471 1.6835L8.10591 1.78252L7.61711 1.91456L6.68024 2.21165L6.02851 2.40971L5.33605 2.73981L4.35845 3.26796L2.93279 4.25825L2.15886 4.95146L1.42566 5.67767L0.651732 6.70097L8.41916e-07 7.85631L0.855398 6.63495L1.87373 5.4466L2.76986 4.65437L3.78819 4.02718L5.25458 3.4L6.59878 3.13592L7.98371 2.97087L9.12424 3.00388L10.0611 3.0699L10.9165 3.16893L12.0163 3.36699L12.6273 3.49903L13.1568 3.63107L13.4012 3.69709L13.6864 3.76311L13.9511 3.82913L14.2159 3.89515L14.4603 3.96116L14.664 4.02718L14.8676 4.12621L15.112 4.25825L14.5418 4.06019L14.2159 3.99417L13.89 3.92816L13.4012 3.82913L12.7088 3.7301L12.057 3.63107L11.3646 3.56505L10.1018 3.53204H9.2057L8.35031 3.56505L7.45418 3.69709L6.59878 3.89515L5.29532 4.25825L4.07332 4.81942L4.88798 4.55534L5.25458 4.45631L5.45825 4.4068L5.66192 4.35728L5.90631 4.39029L6.02851 7.65825L6.27291 8.74757L6.63951 9.80388L7.12831 10.8272L7.82077 11.9495L8.7169 12.9728L10.0611 14.2272L10.8758 14.8214L11.6497 15.2835L12.057 15.5146L12.2607 15.6136L12.5051 15.7126L12.8717 15.8777L13.8493 16.2738L14.1344 16.3728L15.4379 16.7359L16.2933 16.901L17.0672 17L16.4562 16.901L16.2525 16.868L15.8045 16.7689L14.7454 16.4718L14.0122 16.2078L13.279 15.9107L12.5866 15.5476L12.3829 15.4155L12.1385 15.2505L11.6497 14.9204L11.2016 14.5243L10.4684 13.699L9.73523 12.5767L9.2057 11.4874L8.8391 10.4311L8.47251 8.1534V6.4699V6.07379V5.64466L8.55397 5.4466L8.63544 6.96505L8.67617 7.29515L8.7169 7.69126L8.8391 8.25243L9.00204 8.81359L9.16497 9.40777L9.36864 10.101L9.5723 10.5301L9.73523 10.8932L10.0611 11.4874L10.5499 12.2796L10.7943 12.6427L11.0794 12.9728L11.609 13.6L12.0163 13.9631L12.8717 14.7223L13.8086 15.3825L14.3788 15.1515L14.8269 14.8544L15.5601 14.3262L16.1303 13.8971L17.7597 12.2136L18.6151 10.9262L19.2668 9.77087L19.7556 8.12039L19.9185 7.1301L20 6.40388V6.1068V5.7767V5.31456L19.9593 4.98447L19.9185 4.62136L19.8778 4.35728L19.7963 3.92816L19.7149 3.4L19.5519 2.90485L19.1446 1.98058L19.0224 1.78252L18.9817 1.7165L18.9002 1.58447L18.8595 1.51845L18.778 1.38641L18.7373 1.32039L18.6965 1.25437L18.5743 1.0233L18.5336 0.957282L18.2485 0.528155L18.0041 0.132039L17.9226 0L18.1263 0.363107L18.6151 1.22136L18.6965 1.32039L18.778 1.48544L18.8187 1.58447L18.8595 1.6835L18.9409 1.84854L19.1446 2.31068L19.4705 3.66408V4.12621L19.5112 4.45631V5.0835L19.4705 5.4466L19.4297 5.7767L19.389 6.00777L19.1853 6.50291L19.002 6.96505L18.8187 7.42718L18.0448 8.71456L17.0265 9.93592L15.8452 11.0583L14.0122 12.5767L13.5234 12.8738L14.2159 12.2136L15.1935 11.3223L16.0489 10.365L16.5377 9.73786L16.9857 9.04466L17.3931 8.35146L17.7189 7.65825L17.9226 7.26214L18.3299 5.90874L18.4521 5.24854L18.4929 4.7534L18.5336 4.12621L18.2892 5.41359L17.5967 6.66796L16.7821 7.79029L15.8045 8.78058L15.4379 9.14369L15.0306 9.5068L13.1976 10.9262L11.2016 12.2136L10.8758 11.3883L10.6721 10.5301L10.5092 9.40777L10.4277 8.05437V7.26214V6.43689L10.4684 5.90874L10.5092 5.47961L10.5499 5.24854L10.5906 4.98447V4.85243V4.72039H10.6721H10.7943L10.998 4.7534L11.3238 4.81942L11.7312 4.95146L12.057 5.05049L13.4012 5.4466L14.1752 5.71068L15.2342 6.07379L16.2118 6.50291L17.9226 2.90485Z" fill="#1C86DA"/>
<path d="M25.38 12C25.1933 12 25.04 11.9433 24.92 11.83C24.8067 11.71 24.75 11.5633 24.75 11.39V5.61C24.75 5.43667 24.8067 5.29333 24.92 5.18C25.04 5.06 25.1867 5 25.36 5H28.61C28.7833 5 28.9267 5.05667 29.04 5.17C29.16 5.27667 29.22 5.41667 29.22 5.59C29.22 5.73667 29.16 5.86667 29.04 5.98C28.9267 6.09333 28.7833 6.15 28.61 6.15H25.91L26 6.03V8.04L25.93 7.91H28.16C28.3333 7.91 28.4767 7.96667 28.59 8.08C28.71 8.18667 28.77 8.32667 28.77 8.5C28.77 8.64667 28.71 8.77667 28.59 8.89C28.4767 9.00333 28.3333 9.06 28.16 9.06H25.91L26 8.97V11.39C26 11.5633 25.9367 11.71 25.81 11.83C25.69 11.9433 25.5467 12 25.38 12ZM35.3352 4.99C35.5086 4.99 35.6486 5.05 35.7552 5.17C35.8619 5.28333 35.9152 5.42667 35.9152 5.6V9.22C35.9152 9.77333 35.7952 10.2633 35.5552 10.69C35.3219 11.1167 34.9986 11.45 34.5852 11.69C34.1719 11.93 33.6919 12.05 33.1452 12.05C32.5986 12.05 32.1152 11.93 31.6952 11.69C31.2819 11.45 30.9552 11.1167 30.7152 10.69C30.4819 10.2633 30.3652 9.77333 30.3652 9.22V5.6C30.3652 5.42667 30.4252 5.28333 30.5452 5.17C30.6652 5.05 30.8186 4.99 31.0052 4.99C31.1586 4.99 31.2952 5.05 31.4152 5.17C31.5419 5.28333 31.6052 5.42667 31.6052 5.6V9.22C31.6052 9.55333 31.6752 9.84333 31.8152 10.09C31.9619 10.33 32.1519 10.5167 32.3852 10.65C32.6252 10.7833 32.8786 10.85 33.1452 10.85C33.4319 10.85 33.6986 10.7833 33.9452 10.65C34.1919 10.5167 34.3919 10.33 34.5452 10.09C34.6986 9.84333 34.7752 9.55333 34.7752 9.22V5.6C34.7752 5.42667 34.8252 5.28333 34.9252 5.17C35.0252 5.05 35.1619 4.99 35.3352 4.99ZM45.2188 11.39C45.2188 11.5633 45.1554 11.71 45.0288 11.83C44.9021 11.9433 44.7554 12 44.5888 12C44.4021 12 44.2521 11.9433 44.1388 11.83C44.0254 11.71 43.9688 11.5633 43.9688 11.39V5.61C43.9688 5.43667 44.0288 5.29333 44.1488 5.18C44.2688 5.06 44.4221 5 44.6088 5C44.7688 5 44.9088 5.06 45.0288 5.18C45.1554 5.29333 45.2188 5.43667 45.2188 5.61V11.39ZM53.1627 8.5C53.1627 9 53.0793 9.46667 52.9127 9.9C52.746 10.3333 52.5093 10.7167 52.2027 11.05C51.9027 11.3767 51.5427 11.6333 51.1227 11.82C50.7093 12.0067 50.256 12.1 49.7627 12.1C49.2693 12.1 48.816 12.0067 48.4027 11.82C47.9893 11.6333 47.6293 11.3767 47.3227 11.05C47.0227 10.7167 46.7893 10.3333 46.6227 9.9C46.456 9.46667 46.3727 9 46.3727 8.5C46.3727 8 46.456 7.53333 46.6227 7.1C46.7893 6.66667 47.0227 6.28667 47.3227 5.96C47.6293 5.62667 47.9893 5.36667 48.4027 5.18C48.816 4.99333 49.2693 4.9 49.7627 4.9C50.256 4.9 50.7093 4.99333 51.1227 5.18C51.5427 5.36667 51.9027 5.62667 52.2027 5.96C52.5093 6.28667 52.746 6.66667 52.9127 7.1C53.0793 7.53333 53.1627 8 53.1627 8.5ZM51.8627 8.5C51.8627 8.05333 51.7727 7.65 51.5927 7.29C51.4127 6.92333 51.166 6.63333 50.8527 6.42C50.5393 6.20667 50.176 6.1 49.7627 6.1C49.3493 6.1 48.986 6.20667 48.6727 6.42C48.3593 6.63333 48.1127 6.92 47.9327 7.28C47.7593 7.64 47.6727 8.04667 47.6727 8.5C47.6727 8.94667 47.7593 9.35333 47.9327 9.72C48.1127 10.08 48.3593 10.3667 48.6727 10.58C48.986 10.7933 49.3493 10.9 49.7627 10.9C50.176 10.9 50.5393 10.7933 50.8527 10.58C51.166 10.3667 51.4127 10.08 51.5927 9.72C51.7727 9.35333 51.8627 8.94667 51.8627 8.5ZM59.6205 5C59.7805 5 59.9105 5.05333 60.0105 5.16C60.1105 5.26667 60.1605 5.4 60.1605 5.56V11.39C60.1605 11.5633 60.1005 11.71 59.9805 11.83C59.8672 11.9433 59.7239 12 59.5505 12C59.4639 12 59.3739 11.9867 59.2805 11.96C59.1939 11.9267 59.1272 11.8833 59.0805 11.83L55.1505 6.84L55.4105 6.68V11.44C55.4105 11.6 55.3572 11.7333 55.2505 11.84C55.1505 11.9467 55.0172 12 54.8505 12C54.6905 12 54.5605 11.9467 54.4605 11.84C54.3605 11.7333 54.3105 11.6 54.3105 11.44V5.61C54.3105 5.43667 54.3672 5.29333 54.4805 5.18C54.6005 5.06 54.7472 5 54.9205 5C55.0139 5 55.1105 5.02 55.2105 5.06C55.3105 5.09333 55.3839 5.14667 55.4305 5.22L59.2405 10.08L59.0705 10.2V5.56C59.0705 5.4 59.1205 5.26667 59.2205 5.16C59.3205 5.05333 59.4539 5 59.6205 5Z" fill="black"/>
<path d="M42.206 4.99C42.3593 4.99 42.4893 5.05 42.596 5.17C42.7093 5.29 42.766 5.41667 42.766 5.55C42.766 5.67667 42.7227 5.79667 42.636 5.91L40.626 8.56L39.946 7.63L41.716 5.28C41.856 5.08667 42.0193 4.99 42.206 4.99ZM37.746 4.97C37.9393 4.97 38.1027 5.05667 38.236 5.23L42.636 11.08C42.716 11.1867 42.756 11.31 42.756 11.45C42.756 11.6367 42.6893 11.7833 42.556 11.89C42.4227 11.9967 42.2893 12.05 42.156 12.05C41.9627 12.05 41.7993 11.9633 41.666 11.79L37.266 5.94C37.1793 5.83333 37.136 5.71333 37.136 5.58C37.136 5.40667 37.1993 5.26333 37.326 5.15C37.4593 5.03 37.5993 4.97 37.746 4.97ZM37.656 12.05C37.5093 12.05 37.3827 11.9967 37.276 11.89C37.1693 11.7767 37.116 11.6533 37.116 11.52C37.116 11.3733 37.166 11.2367 37.266 11.11L39.296 8.36L39.956 9.33L38.156 11.77C38.0227 11.9567 37.856 12.05 37.656 12.05ZM63.9141 12.1C63.4474 12.1 63.0274 12.0433 62.6541 11.93C62.2807 11.81 61.9241 11.6033 61.5841 11.31C61.4974 11.2367 61.4307 11.1533 61.3841 11.06C61.3374 10.9667 61.3141 10.8733 61.3141 10.78C61.3141 10.6267 61.3674 10.4933 61.4741 10.38C61.5874 10.26 61.7274 10.2 61.8941 10.2C62.0207 10.2 62.1341 10.24 62.2341 10.32C62.4874 10.5267 62.7374 10.6833 62.9841 10.79C63.2374 10.8967 63.5474 10.95 63.9141 10.95C64.1607 10.95 64.3874 10.9133 64.5941 10.84C64.8007 10.76 64.9674 10.6567 65.0941 10.53C65.2207 10.3967 65.2841 10.2467 65.2841 10.08C65.2841 9.88 65.2241 9.71 65.1041 9.57C64.9841 9.43 64.8007 9.31333 64.5541 9.22C64.3074 9.12 63.9941 9.04333 63.6141 8.99C63.2541 8.93667 62.9374 8.85667 62.6641 8.75C62.3907 8.63667 62.1607 8.49667 61.9741 8.33C61.7941 8.15667 61.6574 7.95667 61.5641 7.73C61.4707 7.49667 61.4241 7.23667 61.4241 6.95C61.4241 6.51667 61.5341 6.14667 61.7541 5.84C61.9807 5.53333 62.2841 5.3 62.6641 5.14C63.0441 4.98 63.4641 4.9 63.9241 4.9C64.3574 4.9 64.7574 4.96667 65.1241 5.1C65.4974 5.22667 65.8007 5.39 66.0341 5.59C66.2274 5.74333 66.3241 5.92 66.3241 6.12C66.3241 6.26667 66.2674 6.4 66.1541 6.52C66.0407 6.64 65.9074 6.7 65.7541 6.7C65.6541 6.7 65.5641 6.67 65.4841 6.61C65.3774 6.51667 65.2341 6.43 65.0541 6.35C64.8741 6.26333 64.6841 6.19333 64.4841 6.14C64.2841 6.08 64.0974 6.05 63.9241 6.05C63.6374 6.05 63.3941 6.08667 63.1941 6.16C63.0007 6.23333 62.8541 6.33333 62.7541 6.46C62.6541 6.58667 62.6041 6.73333 62.6041 6.9C62.6041 7.1 62.6607 7.26667 62.7741 7.4C62.8941 7.52667 63.0641 7.63 63.2841 7.71C63.5041 7.78333 63.7674 7.85 64.0741 7.91C64.4741 7.98333 64.8241 8.07 65.1241 8.17C65.4307 8.27 65.6841 8.4 65.8841 8.56C66.0841 8.71333 66.2341 8.91 66.3341 9.15C66.4341 9.38333 66.4841 9.67 66.4841 10.01C66.4841 10.4433 66.3641 10.8167 66.1241 11.13C65.8841 11.4433 65.5674 11.6833 65.1741 11.85C64.7874 12.0167 64.3674 12.1 63.9141 12.1ZM74.0709 8.5C74.0709 9 73.9875 9.46667 73.8209 9.9C73.6542 10.3333 73.4175 10.7167 73.1109 11.05C72.8109 11.3767 72.4509 11.6333 72.0309 11.82C71.6175 12.0067 71.1642 12.1 70.6709 12.1C70.1775 12.1 69.7242 12.0067 69.3109 11.82C68.8975 11.6333 68.5375 11.3767 68.2309 11.05C67.9309 10.7167 67.6975 10.3333 67.5309 9.9C67.3642 9.46667 67.2809 9 67.2809 8.5C67.2809 8 67.3642 7.53333 67.5309 7.1C67.6975 6.66667 67.9309 6.28667 68.2309 5.96C68.5375 5.62667 68.8975 5.36667 69.3109 5.18C69.7242 4.99333 70.1775 4.9 70.6709 4.9C71.1642 4.9 71.6175 4.99333 72.0309 5.18C72.4509 5.36667 72.8109 5.62667 73.1109 5.96C73.4175 6.28667 73.6542 6.66667 73.8209 7.1C73.9875 7.53333 74.0709 8 74.0709 8.5ZM72.7709 8.5C72.7709 8.05333 72.6809 7.65 72.5009 7.29C72.3209 6.92333 72.0742 6.63333 71.7609 6.42C71.4475 6.20667 71.0842 6.1 70.6709 6.1C70.2575 6.1 69.8942 6.20667 69.5809 6.42C69.2675 6.63333 69.0209 6.92 68.8409 7.28C68.6675 7.64 68.5809 8.04667 68.5809 8.5C68.5809 8.94667 68.6675 9.35333 68.8409 9.72C69.0209 10.08 69.2675 10.3667 69.5809 10.58C69.8942 10.7933 70.2575 10.9 70.6709 10.9C71.0842 10.9 71.4475 10.7933 71.7609 10.58C72.0742 10.3667 72.3209 10.08 72.5009 9.72C72.6809 9.35333 72.7709 8.94667 72.7709 8.5ZM75.8488 12C75.6621 12 75.5088 11.9433 75.3888 11.83C75.2754 11.71 75.2188 11.5633 75.2188 11.39V5.61C75.2188 5.43667 75.2754 5.29333 75.3888 5.18C75.5088 5.06 75.6554 5 75.8288 5H79.0788C79.2521 5 79.3954 5.05667 79.5088 5.17C79.6288 5.27667 79.6888 5.41667 79.6888 5.59C79.6888 5.73667 79.6288 5.86667 79.5088 5.98C79.3954 6.09333 79.2521 6.15 79.0788 6.15H76.3788L76.4688 6.03V8.04L76.3988 7.91H78.6288C78.8021 7.91 78.9454 7.96667 79.0588 8.08C79.1788 8.18667 79.2388 8.32667 79.2388 8.5C79.2388 8.64667 79.1788 8.77667 79.0588 8.89C78.9454 9.00333 78.8021 9.06 78.6288 9.06H76.3788L76.4688 8.97V11.39C76.4688 11.5633 76.4054 11.71 76.2788 11.83C76.1588 11.9433 76.0154 12 75.8488 12ZM83.3505 12C83.1638 12 83.0105 11.9433 82.8905 11.83C82.7705 11.71 82.7105 11.5633 82.7105 11.39V5.59H84.0105V11.39C84.0105 11.5633 83.9471 11.71 83.8205 11.83C83.7005 11.9433 83.5438 12 83.3505 12ZM81.1405 6.15C80.9671 6.15 80.8205 6.09667 80.7005 5.99C80.5871 5.88333 80.5305 5.74333 80.5305 5.57C80.5305 5.39667 80.5871 5.26 80.7005 5.16C80.8205 5.05333 80.9671 5 81.1405 5H85.5805C85.7538 5 85.8971 5.05333 86.0105 5.16C86.1305 5.26667 86.1905 5.40667 86.1905 5.58C86.1905 5.75333 86.1305 5.89333 86.0105 6C85.8971 6.1 85.7538 6.15 85.5805 6.15H81.1405Z" fill="#1C89DA"/>
</svg>
