<svg width="246" height="153" viewBox="0 0 246 153" fill="none" xmlns="http://www.w3.org/2000/svg">
<rect width="246" height="153" fill="#F5F5F5"/>
<path d="M147.113 17.0874L144.262 15.3398L141.41 13.9806L138.355 12.8155L135.3 11.6505L132.653 10.8738L130.005 10.0971L128.376 9.70874L126.746 9.32039L125.524 9.12621L123.895 8.93204L122.469 8.73786L120.636 8.54369L117.174 8.34951H113.915H110.453L105.362 8.93204L102.918 9.32039L100.474 9.90291L98.0295 10.4854L95.5855 11.2621L90.9012 13.0097L87.6426 14.1748L84.1802 16.1165L79.2923 19.2233L72.164 25.0485L68.2943 29.1262L64.6283 33.3981L60.7587 39.4175L57.5 46.2136L61.777 39.0291L66.8686 32.0388L71.3493 27.3786L76.4409 23.6893L83.7729 20L90.4939 18.4466L97.4185 17.4757L103.121 17.6699L107.805 18.0583L112.082 18.6408L117.581 19.8058L120.636 20.5825L123.284 21.3592L124.506 21.7476L125.932 22.1359L127.256 22.5243L128.579 22.9126L129.801 23.301L130.82 23.6893L131.838 24.2718L133.06 25.0485L130.209 23.8835L128.579 23.4951L126.95 23.1068L124.506 22.5243L121.044 21.9417L117.785 21.3592L114.323 20.9709L108.009 20.7767H103.529L99.2515 20.9709L94.7709 21.7476L90.4939 22.9126L83.9766 25.0485L77.8666 28.3495L81.9399 26.7961L83.7729 26.2136L84.7912 25.9223L85.8096 25.6311L87.0316 25.8252L87.6426 45.0485L88.8646 51.4563L90.6976 57.6699L93.1415 63.6893L96.6039 70.2913L101.085 76.3107L107.805 83.6893L111.879 87.1845L115.748 89.9029L117.785 91.2621L118.803 91.8447L120.025 92.4272L121.858 93.3981L126.746 95.7282L128.172 96.3107L134.689 98.4466L138.966 99.4175L142.836 100L139.781 99.4175L138.763 99.2233L136.522 98.6408L131.227 96.8932L127.561 95.3398L123.895 93.5922L120.433 91.4563L119.414 90.6796L118.192 89.7087L115.748 87.767L113.508 85.4369L109.842 80.5825L106.176 73.9806L103.529 67.5728L101.696 61.3592L99.8625 47.9612V38.0583V35.7282V33.2039L100.27 32.0388L100.677 40.9709L100.881 42.9126L101.085 45.2427L101.696 48.5437L102.51 51.8447L103.325 55.3398L104.343 59.4175L105.362 61.9417L106.176 64.0777L107.805 67.5728L110.249 72.233L111.471 74.3689L112.897 76.3107L115.545 80L117.581 82.1359L121.858 86.6019L126.543 90.4854L129.394 89.1262L131.634 87.3786L135.3 84.2718L138.152 81.7476L146.298 71.8447L150.575 64.2718L153.834 57.4757L156.278 47.767L157.093 41.9417L157.5 37.6699V35.9223V33.9806V31.2621L157.296 29.3204L157.093 27.1845L156.889 25.6311L156.482 23.1068L156.074 20L155.26 17.0874L153.223 11.6505L152.612 10.4854L152.408 10.0971L152.001 9.32039L151.797 8.93204L151.39 8.15534L151.186 7.76699L150.983 7.37864L150.372 6.01942L150.168 5.63107L148.742 3.1068L147.52 0.776699L147.113 0L148.131 2.13592L150.575 7.18447L150.983 7.76699L151.39 8.73786L151.594 9.32039L151.797 9.90291L152.205 10.8738L153.223 13.5922L154.852 21.5534V24.2718L155.056 26.2136V29.9029L154.852 32.0388L154.649 33.9806L154.445 35.3398L153.427 38.2524L152.51 40.9709L151.594 43.6893L147.724 51.2621L142.632 58.4466L136.726 65.0485L127.561 73.9806L125.117 75.7282L128.579 71.8447L133.467 66.6019L137.744 60.9709L140.188 57.2816L142.429 53.2039L144.465 49.1262L146.095 45.0485L147.113 42.7184L149.15 34.7573L149.761 30.8738L149.964 27.9612L150.168 24.2718L148.946 31.8447L145.484 39.2233L141.41 45.8252L136.522 51.6505L134.689 53.7864L132.653 55.9223L123.488 64.2718L113.508 71.8447L111.879 66.9903L110.86 61.9417L110.046 55.3398L109.638 47.3786V42.7184V37.8641L109.842 34.7573L110.046 32.233L110.249 30.8738L110.453 29.3204V28.5437V27.767H110.86H111.471L112.49 27.9612L114.119 28.3495L116.156 29.1262L117.785 29.7087L124.506 32.0388L128.376 33.5922L133.671 35.7282L138.559 38.2524L147.113 17.0874Z" fill="#1C86DA"/>
<path d="M2.52 152C1.77333 152 1.16 151.773 0.68 151.32C0.226667 150.84 1.19209e-07 150.253 1.19209e-07 149.56V126.44C1.19209e-07 125.747 0.226667 125.173 0.68 124.72C1.16 124.24 1.74667 124 2.44 124H15.44C16.1333 124 16.7067 124.227 17.16 124.68C17.64 125.107 17.88 125.667 17.88 126.36C17.88 126.947 17.64 127.467 17.16 127.92C16.7067 128.373 16.1333 128.6 15.44 128.6H4.64L5 128.12V136.16L4.72 135.64H13.64C14.3333 135.64 14.9067 135.867 15.36 136.32C15.84 136.747 16.08 137.307 16.08 138C16.08 138.587 15.84 139.107 15.36 139.56C14.9067 140.013 14.3333 140.24 13.64 140.24H4.64L5 139.88V149.56C5 150.253 4.74667 150.84 4.24 151.32C3.76 151.773 3.18667 152 2.52 152ZM42.3409 123.96C43.0343 123.96 43.5943 124.2 44.0209 124.68C44.4476 125.133 44.6609 125.707 44.6609 126.4V140.88C44.6609 143.093 44.1809 145.053 43.2209 146.76C42.2876 148.467 40.9943 149.8 39.3409 150.76C37.6876 151.72 35.7676 152.2 33.5809 152.2C31.3943 152.2 29.4609 151.72 27.7809 150.76C26.1276 149.8 24.8209 148.467 23.8609 146.76C22.9276 145.053 22.4609 143.093 22.4609 140.88V126.4C22.4609 125.707 22.7009 125.133 23.1809 124.68C23.6609 124.2 24.2743 123.96 25.0209 123.96C25.6343 123.96 26.1809 124.2 26.6609 124.68C27.1676 125.133 27.4209 125.707 27.4209 126.4V140.88C27.4209 142.213 27.7009 143.373 28.2609 144.36C28.8476 145.32 29.6076 146.067 30.5409 146.6C31.5009 147.133 32.5143 147.4 33.5809 147.4C34.7276 147.4 35.7943 147.133 36.7809 146.6C37.7676 146.067 38.5676 145.32 39.1809 144.36C39.7943 143.373 40.1009 142.213 40.1009 140.88V126.4C40.1009 125.707 40.3009 125.133 40.7009 124.68C41.1009 124.2 41.6476 123.96 42.3409 123.96ZM81.875 149.56C81.875 150.253 81.6217 150.84 81.115 151.32C80.6083 151.773 80.0217 152 79.355 152C78.6083 152 78.0083 151.773 77.555 151.32C77.1017 150.84 76.875 150.253 76.875 149.56V126.44C76.875 125.747 77.115 125.173 77.595 124.72C78.075 124.24 78.6883 124 79.435 124C80.075 124 80.635 124.24 81.115 124.72C81.6217 125.173 81.875 125.747 81.875 126.44V149.56ZM113.651 138C113.651 140 113.317 141.867 112.651 143.6C111.984 145.333 111.037 146.867 109.811 148.2C108.611 149.507 107.171 150.533 105.491 151.28C103.837 152.027 102.024 152.4 100.051 152.4C98.0773 152.4 96.264 152.027 94.6106 151.28C92.9573 150.533 91.5173 149.507 90.2906 148.2C89.0906 146.867 88.1573 145.333 87.4906 143.6C86.824 141.867 86.4906 140 86.4906 138C86.4906 136 86.824 134.133 87.4906 132.4C88.1573 130.667 89.0906 129.147 90.2906 127.84C91.5173 126.507 92.9573 125.467 94.6106 124.72C96.264 123.973 98.0773 123.6 100.051 123.6C102.024 123.6 103.837 123.973 105.491 124.72C107.171 125.467 108.611 126.507 109.811 127.84C111.037 129.147 111.984 130.667 112.651 132.4C113.317 134.133 113.651 136 113.651 138ZM108.451 138C108.451 136.213 108.091 134.6 107.371 133.16C106.651 131.693 105.664 130.533 104.411 129.68C103.157 128.827 101.704 128.4 100.051 128.4C98.3973 128.4 96.944 128.827 95.6906 129.68C94.4373 130.533 93.4506 131.68 92.7306 133.12C92.0373 134.56 91.6906 136.187 91.6906 138C91.6906 139.787 92.0373 141.413 92.7306 142.88C93.4506 144.32 94.4373 145.467 95.6906 146.32C96.944 147.173 98.3973 147.6 100.051 147.6C101.704 147.6 103.157 147.173 104.411 146.32C105.664 145.467 106.651 144.32 107.371 142.88C108.091 141.413 108.451 139.787 108.451 138ZM139.482 124C140.122 124 140.642 124.213 141.042 124.64C141.442 125.067 141.642 125.6 141.642 126.24V149.56C141.642 150.253 141.402 150.84 140.922 151.32C140.469 151.773 139.896 152 139.202 152C138.856 152 138.496 151.947 138.122 151.84C137.776 151.707 137.509 151.533 137.322 151.32L121.602 131.36L122.642 130.72V149.76C122.642 150.4 122.429 150.933 122.002 151.36C121.602 151.787 121.069 152 120.402 152C119.762 152 119.242 151.787 118.842 151.36C118.442 150.933 118.242 150.4 118.242 149.76V126.44C118.242 125.747 118.469 125.173 118.922 124.72C119.402 124.24 119.989 124 120.682 124C121.056 124 121.442 124.08 121.842 124.24C122.242 124.373 122.536 124.587 122.722 124.88L137.962 144.32L137.282 144.8V126.24C137.282 125.6 137.482 125.067 137.882 124.64C138.282 124.213 138.816 124 139.482 124Z" fill="black"/>
<path d="M69.8241 123.96C70.4374 123.96 70.9574 124.2 71.3841 124.68C71.8374 125.16 72.0641 125.667 72.0641 126.2C72.0641 126.707 71.8907 127.187 71.5441 127.64L63.5041 138.24L60.7841 134.52L67.8641 125.12C68.4241 124.347 69.0774 123.96 69.8241 123.96ZM51.9841 123.88C52.7574 123.88 53.4107 124.227 53.9441 124.92L71.5441 148.32C71.8641 148.747 72.0241 149.24 72.0241 149.8C72.0241 150.547 71.7574 151.133 71.2241 151.56C70.6907 151.987 70.1574 152.2 69.6241 152.2C68.8507 152.2 68.1974 151.853 67.6641 151.16L50.0641 127.76C49.7174 127.333 49.5441 126.853 49.5441 126.32C49.5441 125.627 49.7974 125.053 50.3041 124.6C50.8374 124.12 51.3974 123.88 51.9841 123.88ZM51.6241 152.2C51.0374 152.2 50.5307 151.987 50.1041 151.56C49.6774 151.107 49.4641 150.613 49.4641 150.08C49.4641 149.493 49.6641 148.947 50.0641 148.44L58.1841 137.44L60.8241 141.32L53.6241 151.08C53.0907 151.827 52.4241 152.2 51.6241 152.2ZM156.656 152.4C154.79 152.4 153.11 152.173 151.616 151.72C150.123 151.24 148.696 150.413 147.336 149.24C146.99 148.947 146.723 148.613 146.536 148.24C146.35 147.867 146.256 147.493 146.256 147.12C146.256 146.507 146.47 145.973 146.896 145.52C147.35 145.04 147.91 144.8 148.576 144.8C149.083 144.8 149.536 144.96 149.936 145.28C150.95 146.107 151.95 146.733 152.936 147.16C153.95 147.587 155.19 147.8 156.656 147.8C157.643 147.8 158.55 147.653 159.376 147.36C160.203 147.04 160.87 146.627 161.376 146.12C161.883 145.587 162.136 144.987 162.136 144.32C162.136 143.52 161.896 142.84 161.416 142.28C160.936 141.72 160.203 141.253 159.216 140.88C158.23 140.48 156.976 140.173 155.456 139.96C154.016 139.747 152.75 139.427 151.656 139C150.563 138.547 149.643 137.987 148.896 137.32C148.176 136.627 147.63 135.827 147.256 134.92C146.883 133.987 146.696 132.947 146.696 131.8C146.696 130.067 147.136 128.587 148.016 127.36C148.923 126.133 150.136 125.2 151.656 124.56C153.176 123.92 154.856 123.6 156.696 123.6C158.43 123.6 160.03 123.867 161.496 124.4C162.99 124.907 164.203 125.56 165.136 126.36C165.91 126.973 166.296 127.68 166.296 128.48C166.296 129.067 166.07 129.6 165.616 130.08C165.163 130.56 164.63 130.8 164.016 130.8C163.616 130.8 163.256 130.68 162.936 130.44C162.51 130.067 161.936 129.72 161.216 129.4C160.496 129.053 159.736 128.773 158.936 128.56C158.136 128.32 157.39 128.2 156.696 128.2C155.55 128.2 154.576 128.347 153.776 128.64C153.003 128.933 152.416 129.333 152.016 129.84C151.616 130.347 151.416 130.933 151.416 131.6C151.416 132.4 151.643 133.067 152.096 133.6C152.576 134.107 153.256 134.52 154.136 134.84C155.016 135.133 156.07 135.4 157.296 135.64C158.896 135.933 160.296 136.28 161.496 136.68C162.723 137.08 163.736 137.6 164.536 138.24C165.336 138.853 165.936 139.64 166.336 140.6C166.736 141.533 166.936 142.68 166.936 144.04C166.936 145.773 166.456 147.267 165.496 148.52C164.536 149.773 163.27 150.733 161.696 151.4C160.15 152.067 158.47 152.4 156.656 152.4ZM197.283 138C197.283 140 196.95 141.867 196.283 143.6C195.617 145.333 194.67 146.867 193.443 148.2C192.243 149.507 190.803 150.533 189.123 151.28C187.47 152.027 185.657 152.4 183.683 152.4C181.71 152.4 179.897 152.027 178.243 151.28C176.59 150.533 175.15 149.507 173.923 148.2C172.723 146.867 171.79 145.333 171.123 143.6C170.457 141.867 170.123 140 170.123 138C170.123 136 170.457 134.133 171.123 132.4C171.79 130.667 172.723 129.147 173.923 127.84C175.15 126.507 176.59 125.467 178.243 124.72C179.897 123.973 181.71 123.6 183.683 123.6C185.657 123.6 187.47 123.973 189.123 124.72C190.803 125.467 192.243 126.507 193.443 127.84C194.67 129.147 195.617 130.667 196.283 132.4C196.95 134.133 197.283 136 197.283 138ZM192.083 138C192.083 136.213 191.723 134.6 191.003 133.16C190.283 131.693 189.297 130.533 188.043 129.68C186.79 128.827 185.337 128.4 183.683 128.4C182.03 128.4 180.577 128.827 179.323 129.68C178.07 130.533 177.083 131.68 176.363 133.12C175.67 134.56 175.323 136.187 175.323 138C175.323 139.787 175.67 141.413 176.363 142.88C177.083 144.32 178.07 145.467 179.323 146.32C180.577 147.173 182.03 147.6 183.683 147.6C185.337 147.6 186.79 147.173 188.043 146.32C189.297 145.467 190.283 144.32 191.003 142.88C191.723 141.413 192.083 139.787 192.083 138ZM204.395 152C203.648 152 203.035 151.773 202.555 151.32C202.102 150.84 201.875 150.253 201.875 149.56V126.44C201.875 125.747 202.102 125.173 202.555 124.72C203.035 124.24 203.622 124 204.315 124H217.315C218.008 124 218.582 124.227 219.035 124.68C219.515 125.107 219.755 125.667 219.755 126.36C219.755 126.947 219.515 127.467 219.035 127.92C218.582 128.373 218.008 128.6 217.315 128.6H206.515L206.875 128.12V136.16L206.595 135.64H215.515C216.208 135.64 216.782 135.867 217.235 136.32C217.715 136.747 217.955 137.307 217.955 138C217.955 138.587 217.715 139.107 217.235 139.56C216.782 140.013 216.208 140.24 215.515 140.24H206.515L206.875 139.88V149.56C206.875 150.253 206.622 150.84 206.115 151.32C205.635 151.773 205.062 152 204.395 152ZM234.402 152C233.655 152 233.042 151.773 232.562 151.32C232.082 150.84 231.842 150.253 231.842 149.56V126.36H237.042V149.56C237.042 150.253 236.789 150.84 236.282 151.32C235.802 151.773 235.175 152 234.402 152ZM225.562 128.6C224.869 128.6 224.282 128.387 223.802 127.96C223.349 127.533 223.122 126.973 223.122 126.28C223.122 125.587 223.349 125.04 223.802 124.64C224.282 124.213 224.869 124 225.562 124H243.322C244.015 124 244.589 124.213 245.042 124.64C245.522 125.067 245.762 125.627 245.762 126.32C245.762 127.013 245.522 127.573 245.042 128C244.589 128.4 244.015 128.6 243.322 128.6H225.562Z" fill="#1C89DA"/>
</svg>
